<?xml version="1.0" standalone="no"?>
<!DOCTYPE svg PUBLIC "-//W3C//DTD SVG 20010904//EN"
 "http://www.w3.org/TR/2001/REC-SVG-20010904/DTD/svg10.dtd">
<svg version="1.0" xmlns="http://www.w3.org/2000/svg"
 width="728.000000pt" height="728.000000pt" viewBox="0 0 728.000000 728.000000"
 preserveAspectRatio="xMidYMid meet">
<metadata>
Created by potrace 1.11, written by Peter Selinger 2001-2013
</metadata>
<g transform="translate(0.000000,728.000000) scale(0.100000,-0.100000)"
fill="#000000" stroke="none">
<path d="M5506 7235 c-43 -25 -117 -66 -165 -92 -47 -25 -88 -49 -91 -52 -3
-3 -23 -15 -45 -26 -37 -19 -262 -144 -295 -165 -8 -5 -35 -20 -60 -33 -25
-14 -67 -38 -95 -54 l-50 -29 -1 -500 -1 -500 31 -18 c17 -10 58 -33 91 -51
33 -18 89 -49 125 -70 36 -20 74 -41 85 -46 11 -5 36 -19 55 -31 19 -11 55
-32 80 -46 25 -13 59 -32 75 -42 17 -10 50 -29 75 -42 25 -14 63 -35 85 -48
22 -12 63 -35 92 -51 29 -16 61 -34 73 -41 22 -14 37 -8 200 85 47 27 114 65
150 85 36 20 81 45 101 57 20 11 84 47 143 80 59 33 131 74 161 90 29 17 75
42 102 56 l48 27 0 502 0 502 -50 28 c-27 16 -66 37 -85 47 -19 9 -37 19 -40
22 -3 4 -21 14 -40 23 -19 10 -42 22 -50 27 -45 29 -156 89 -161 87 -4 0 -15
6 -25 15 -11 9 -48 32 -84 51 -36 20 -81 45 -100 56 -19 11 -53 30 -75 42
-124 68 -151 83 -159 91 -14 13 -14 13 -100 -36z"/>
<path d="M3544 6969 c-49 -28 -109 -62 -134 -76 -25 -15 -61 -35 -80 -45 -54
-28 -158 -87 -193 -109 -18 -10 -48 -26 -67 -35 -19 -9 -37 -19 -40 -23 -6 -7
-25 -18 -101 -57 -30 -15 -56 -30 -59 -33 -3 -4 -18 -13 -35 -22 -63 -34 -144
-79 -236 -131 -52 -30 -102 -58 -110 -62 -8 -4 -23 -12 -34 -19 -11 -7 -60
-34 -110 -62 -49 -27 -98 -54 -107 -60 -9 -5 -29 -17 -45 -26 -15 -8 -73 -41
-129 -72 l-101 -56 1 -935 c1 -514 3 -936 6 -938 11 -9 111 -68 115 -68 2 0
39 -20 81 -45 41 -25 77 -45 79 -45 2 0 41 -21 87 -48 46 -26 100 -56 121 -67
20 -11 37 -23 37 -27 0 -5 6 -8 14 -8 8 0 47 -19 88 -43 77 -46 166 -96 233
-131 22 -12 42 -24 43 -28 2 -5 8 -8 12 -8 5 0 37 -17 72 -37 35 -21 65 -38
68 -38 3 -1 21 -11 40 -23 19 -12 41 -22 48 -22 6 0 12 -3 12 -7 0 -5 10 -13
23 -19 12 -5 81 -43 152 -83 72 -41 150 -85 175 -99 25 -13 71 -40 103 -59
l59 -33 51 27 c29 15 54 30 57 33 3 3 28 17 55 31 28 15 133 73 235 131 102
58 208 117 235 133 146 81 282 157 295 165 24 14 320 180 380 213 30 16 96 53
145 82 50 28 97 54 105 58 8 4 38 21 65 36 l50 28 0 372 c0 242 -3 375 -10
380 -5 5 -41 25 -80 46 -38 21 -74 41 -80 45 -5 4 -39 23 -75 42 -36 20 -83
46 -105 58 -22 13 -58 33 -80 44 -22 12 -42 24 -45 27 -3 4 -34 21 -70 39 -36
18 -67 35 -70 39 -3 4 -16 12 -30 18 -14 7 -52 28 -85 47 -33 19 -76 43 -95
52 -19 10 -62 34 -95 54 -33 19 -72 41 -86 49 l-26 13 -1 541 c0 298 -1 548
-1 555 -1 7 -9 16 -18 19 -10 4 -20 10 -23 13 -3 4 -23 17 -45 29 -22 12 -58
33 -80 46 -22 14 -55 33 -72 42 -18 9 -33 20 -33 25 0 4 -5 8 -11 8 -9 0 -315
179 -345 201 -6 5 -48 -13 -100 -42z"/>
<path d="M1550 3648 c-96 -55 -200 -113 -230 -130 -30 -17 -82 -46 -115 -65
-33 -19 -68 -37 -77 -40 -10 -3 -18 -8 -18 -12 0 -4 -20 -15 -45 -26 -25 -11
-45 -23 -45 -27 0 -5 -4 -8 -9 -8 -5 0 -69 -34 -142 -75 -72 -41 -136 -75
-140 -75 -5 0 -9 -4 -9 -10 0 -5 -5 -10 -11 -10 -7 0 -28 -10 -48 -22 -20 -13
-38 -23 -41 -23 -3 0 -36 -19 -75 -41 -38 -23 -95 -55 -125 -72 -30 -16 -98
-54 -151 -84 -52 -30 -102 -58 -110 -62 -8 -4 -32 -17 -54 -30 l-40 -22 -3
-936 -2 -936 27 -18 c16 -10 31 -19 35 -19 4 0 13 -6 19 -12 7 -7 16 -13 20
-13 3 0 51 -25 105 -56 114 -65 110 -62 394 -221 118 -67 231 -130 250 -141
19 -11 55 -32 80 -45 25 -14 61 -34 80 -46 19 -11 51 -29 70 -39 36 -19 60
-33 247 -139 62 -34 116 -63 122 -63 5 0 11 -3 13 -7 2 -5 32 -23 68 -42 36
-19 67 -37 70 -40 3 -3 20 -14 38 -24 l34 -17 136 77 c186 105 185 105 239
134 66 36 116 64 198 112 39 23 72 42 75 42 3 0 25 12 50 27 119 68 266 151
337 189 43 23 80 45 83 48 3 3 18 13 35 21 16 8 93 51 170 94 236 133 299 168
325 182 l25 13 -1 918 c-1 505 -2 928 -3 940 -1 13 -11 25 -28 33 -30 12 -42
19 -170 93 -45 26 -87 47 -93 47 -5 0 -10 5 -10 10 0 6 -4 10 -9 10 -6 0 -74
37 -153 81 -79 45 -165 94 -193 109 -27 15 -115 64 -194 109 -79 44 -147 81
-152 81 -5 0 -9 3 -9 8 0 4 -17 15 -37 25 -21 9 -51 25 -68 35 -16 9 -61 35
-100 56 -38 22 -86 48 -105 59 -19 11 -60 33 -90 50 -30 17 -67 39 -82 49 -16
11 -28 16 -28 12 0 -4 -8 0 -17 8 -17 14 -132 79 -136 77 -1 -1 -81 -46 -177
-101z"/>
<path d="M5509 3719 c-30 -15 -61 -32 -69 -36 -8 -4 -46 -26 -85 -48 -38 -23
-99 -57 -135 -76 -98 -53 -114 -63 -122 -74 -4 -5 -8 -6 -8 -1 0 5 -8 2 -17
-6 -10 -8 -33 -21 -50 -29 -18 -8 -33 -17 -33 -21 0 -5 -4 -8 -10 -8 -9 0
-280 -149 -290 -160 -3 -3 -32 -19 -65 -36 -110 -58 -130 -69 -135 -76 -3 -4
-21 -14 -40 -23 -19 -8 -42 -20 -50 -25 -24 -15 -182 -105 -267 -151 -43 -23
-86 -49 -95 -57 -10 -8 -18 -12 -18 -8 0 4 -17 -5 -37 -19 -21 -14 -43 -25
-50 -25 -7 0 -13 -4 -13 -10 0 -5 -7 -10 -15 -10 -8 0 -15 -8 -16 -17 -3 -54
-4 -1841 -1 -1854 2 -9 18 -23 35 -32 39 -20 146 -79 207 -115 25 -14 63 -36
85 -48 22 -11 58 -31 80 -44 42 -24 91 -51 172 -96 27 -15 59 -34 73 -43 14
-9 45 -27 70 -39 25 -13 61 -32 80 -44 19 -11 152 -86 295 -166 143 -80 271
-152 285 -160 14 -9 27 -15 30 -15 3 0 16 -7 30 -17 26 -18 112 -66 189 -106
35 -18 48 -20 67 -12 13 6 24 15 24 20 0 4 4 8 10 8 5 0 112 58 237 128 126
71 255 144 288 162 54 30 219 122 335 188 25 14 59 34 75 44 17 10 39 22 50
27 11 5 49 26 85 46 131 76 186 106 220 123 19 9 41 23 48 30 7 6 20 12 28 12
8 0 14 3 14 8 0 4 21 18 48 30 26 13 65 34 87 47 22 13 51 30 65 37 l25 13 3
943 c1 649 -1 942 -8 942 -6 0 -70 34 -141 75 -72 41 -135 75 -140 75 -5 0 -9
5 -9 11 0 5 -4 8 -9 5 -5 -3 -14 1 -21 9 -7 8 -16 15 -20 15 -5 0 -50 24 -102
53 -51 30 -118 67 -148 84 -30 16 -104 58 -165 93 -126 72 -230 129 -262 144
-13 6 -23 14 -23 19 0 4 -4 7 -10 7 -5 0 -73 36 -151 80 -77 44 -144 80 -149
80 -4 0 -10 3 -12 8 -1 4 -16 14 -33 23 -93 48 -140 75 -143 82 -2 4 -8 7 -12
7 -5 0 -31 13 -58 29 l-49 29 -54 -29z"/>
</g>
</svg>
