<svg xmlns="http://www.w3.org/2000/svg" viewBox="0 0 34.64 40"><path d="M0 10v20l17.32 10 17.32-10V10L17.32 0 0 10Zm33.03 19.07-15.71 9.07-15.71-9.07V10.93l15.71-9.08 15.71 9.07v18.15Z"/><path d="m22.58 16.04-5.26 3.03-5.21-3.01c.72-1.62.14-3.55-1.43-4.46-.81-.47-1.76-.59-2.66-.35-.9.24-1.66.82-2.13 1.63-.97 1.67-.39 3.82 1.28 4.79.55.32 1.15.47 1.74.47.81 0 1.6-.28 2.23-.8.03.02.05.05.08.07l5.28 3.05v5.73c-1.54.37-2.7 1.75-2.7 3.4 0 1.93 1.57 3.5 3.5 3.5s3.5-1.57 3.5-3.5c0-1.65-1.16-3.04-2.7-3.4v-5.73l5.42-3.13c.15.13.31.25.48.35.55.32 1.15.47 1.74.47 1.21 0 2.39-.63 3.04-1.75.47-.81.59-1.76.35-2.66-.24-.9-.82-1.66-1.63-2.13-.81-.47-1.76-.59-2.66-.35-.9.24-1.66.82-2.13 1.63-.47.81-.59 1.76-.35 2.66.05.17.11.33.18.49Zm-12-.45c-.52.91-1.69 1.22-2.59.7a1.896 1.896 0 0 1 .95-3.54c.32 0 .65.08.95.25.44.25.75.66.89 1.15.13.49.06 1-.19 1.44Zm8.64 14a1.9 1.9 0 1 1-3.8 0 1.9 1.9 0 1 1 3.8 0Zm4.92-15.9c.25-.44.66-.75 1.15-.88.16-.04.33-.07.49-.07.33 0 .65.09.95.25.91.52 1.22 1.69.7 2.59-.52.91-1.69 1.22-2.59.7a1.899 1.899 0 0 1-.7-2.59Z"/></svg>